<svg width="1400" height="1400" viewBox="0 0 1400 1400" fill="none" xmlns="http://www.w3.org/2000/svg">
<path d="M517.207 204.001C493.661 206.524 462.545 213.252 435.635 222.082C407.673 231.122 358.056 255.51 331.776 273.17C247.47 329.304 193.229 407.303 173.046 500.859C166.318 532.395 166.318 593.995 173.046 628.264C183.978 682.926 206.053 734.014 242.845 790.359C288.467 860.368 305.917 907.041 305.917 958.34C305.917 998.075 292.251 1033.82 266.602 1061.57L252.937 1076.49L259.664 1090.58C265.131 1101.51 272.068 1109.92 289.939 1128C327.992 1166.06 365.204 1187.5 405.781 1195.07C431.43 1199.9 476 1198.64 502.701 1192.13L521.833 1187.5L527.719 1172.78C540.123 1140.83 568.506 1106.77 593.104 1093.73C617.281 1081.12 625.691 1079.44 655.965 1080.28C719.668 1082.59 773.279 1081.33 796.825 1077.55C852.749 1068.29 882.603 1054.21 888.28 1034.24C889.541 1030.24 889.751 1012.58 888.91 992.398C887.859 964.437 888.49 954.135 891.223 940.89C893.115 931.85 894.587 924.281 894.587 923.86C894.587 923.65 889.331 922.599 882.603 921.758C867.886 919.866 842.027 911.667 828.572 904.308C805.866 892.114 786.103 865.624 783.791 844.18L782.739 834.929H808.599C852.118 834.929 879.66 825.468 903.417 802.763L916.031 790.359L914.77 773.119C910.775 714.672 910.775 716.775 914.98 715.513C948.408 704.16 975.949 679.773 984.149 654.544C990.666 634.782 984.149 621.536 965.648 616.07C931.799 605.769 885.757 570.028 872.512 543.538C866.204 530.923 865.994 522.093 870.619 482.989C874.194 453.555 873.353 410.877 869.148 390.484C856.954 334.35 803.763 278.216 727.657 241.424C661.852 209.678 588.268 196.643 517.207 204.001Z" fill="#00689D"/>
<rect x="985.707" y="916.254" width="222.078" height="62.4901" rx="31.2451" transform="rotate(27.9159 985.707 916.254)" fill="#FF6927"/>
<rect x="956.67" y="766.994" width="235.603" height="60.943" rx="30.4715" transform="rotate(-25.5876 956.67 766.994)" fill="#FF6927"/>
<rect x="995.902" y="839.945" width="235.603" height="62.5102" rx="31.2551" transform="rotate(-0.77571 995.902 839.945)" fill="#FF6927"/>
</svg>
